<svg xmlns="http://www.w3.org/2000/svg" width="24.26" height="24.291" viewBox="0 0 24.26 24.291"><defs><style>.a{fill:#fff;}.b,.c{stroke:none;}.c{fill:#007aff;}</style></defs><g class="a" transform="translate(0 0.2)"><path class="b" d="M 12.48168468475342 23.74106025695801 L 1.571174740791321 23.74106025695801 C 1.531354665756226 23.74106025695801 1.493744730949402 23.74106025695801 1.46723473072052 23.73727035522461 L 1.442594647407532 23.73374938964844 L 1.435599327087402 23.73374938964844 C 1.427239060401917 23.73241424560547 1.417834639549255 23.73101806640625 1.407502412796021 23.72980690002441 C 1.387568712234497 23.72576141357422 1.370497822761536 23.7234935760498 1.358004689216614 23.72183990478516 L 1.350933313369751 23.72086334228516 C 1.342562198638916 23.71866798400879 1.334989905357361 23.71646308898926 1.327404737472534 23.71430015563965 C 1.311084747314453 23.70964050292969 1.294734716415405 23.70501899719238 1.276074647903442 23.70035934448242 L 1.234264731407166 23.68989944458008 L 1.221572160720825 23.68989944458008 C 1.220844268798828 23.6895866394043 1.220114707946777 23.68927192687988 1.219384670257568 23.6889591217041 C 1.206918716430664 23.68361663818359 1.194393038749695 23.67841911315918 1.18243682384491 23.67376518249512 C 1.147183537483215 23.65727615356445 1.11784303188324 23.64669990539551 1.095506548881531 23.63912010192871 C 1.083728909492493 23.63323211669922 1.066329479217529 23.62454032897949 1.044829845428467 23.61587142944336 C 1.036708235740662 23.61203575134277 1.02897584438324 23.60851860046387 1.021524667739868 23.60515975952148 L 1.017290830612183 23.60322189331055 L 0.9881947040557861 23.58383941650391 L 0.966249942779541 23.5765209197998 C 0.9646761417388916 23.57546234130859 0.9630993604660034 23.57439613342285 0.9615147113800049 23.57333946228027 L 0.9121246933937073 23.54040908813477 L 0.9007059335708618 23.53279304504395 L 0.8927546739578247 23.5262393951416 C 0.8774147033691406 23.51346015930176 0.8564146757125854 23.49595069885254 0.829824686050415 23.47823905944824 C 0.8248381614685059 23.47491645812988 0.8197147250175476 23.47162246704102 0.8148817420005798 23.46827507019043 L 0.8002346754074097 23.45363998413086 L 0.7714446783065796 23.43444061279297 C 0.7564646601676941 23.42445945739746 0.7318046689033508 23.39979934692383 0.7079547047615051 23.37594985961914 C 0.6894514560699463 23.35743713378906 0.6661372780799866 23.33080673217773 0.6385060548782349 23.29664039611816 C 0.6288301944732666 23.2830810546875 0.6192329525947571 23.27076721191406 0.6094746589660645 23.25856971740723 L 0.6035047173500061 23.25102996826172 L 0.5842846632003784 23.22220039367676 L 0.5643622875213623 23.2030200958252 C 0.5607349276542664 23.19808197021484 0.5576323866844177 23.19305610656738 0.5543646812438965 23.18815040588379 L 0.5152663588523865 23.12950706481934 L 0.5140146613121033 23.12702941894531 C 0.5079087615013123 23.11481094360352 0.4985539615154266 23.09609222412109 0.485351949930191 23.07444763183594 C 0.4796856641769409 23.06124114990234 0.471707284450531 23.04285621643066 0.4603764116764069 23.02180862426758 C 0.4563620984554291 23.01304626464844 0.4524872601032257 23.00530624389648 0.4490024447441101 22.9986457824707 C 0.4410386681556702 22.97002983093262 0.4334339499473572 22.94722938537598 0.4270246922969818 22.92800903320313 L 0.412194699048996 22.8835391998291 L 0.4082933962345123 22.87768936157227 C 0.4023268818855286 22.84282684326172 0.3938851058483124 22.81457710266113 0.3871523141860962 22.79387092590332 C 0.3836798965930939 22.78068542480469 0.3802212178707123 22.76846694946289 0.3767346739768982 22.75625991821289 C 0.3741046786308289 22.74703979492188 0.3714146912097931 22.73782920837402 0.3687746822834015 22.7272891998291 L 0.3686060905456543 22.72661399841309 L 0.3685346841812134 22.72608947753906 C 0.3670725226402283 22.71509742736816 0.3651689887046814 22.70074653625488 0.3621220588684082 22.68396759033203 C 0.3606680631637573 22.6696605682373 0.3588269352912903 22.6574649810791 0.3573046922683716 22.64809417724609 L 0.3573046922683716 22.64118957519531 L 0.3537946939468384 22.61659049987793 C 0.3500047028064728 22.59004020690918 0.3500047028064728 22.55241012573242 0.3500047028064728 22.51258087158203 L 0.3500047028064728 11.60206031799316 C 0.3500047028064728 10.93676948547363 0.8945446610450745 10.39550971984863 1.563864707946777 10.39550971984863 C 2.229164600372314 10.39550971984863 2.770424604415894 10.93676948547363 2.770424604415894 11.60206031799316 L 2.770424604415894 18.74906921386719 L 2.770424604415894 19.59403991699219 L 3.36791467666626 18.99655914306641 L 8.527204513549805 13.83726978302002 L 19.1820240020752 3.175129890441895 L 19.77902412414551 2.577729940414429 L 18.9344539642334 2.577729940414429 L 11.78744506835938 2.577729940414429 C 11.12215423583984 2.577729940414429 10.58089447021484 2.03646993637085 10.58089447021484 1.371169924736023 C 10.58089447021484 0.7058799266815186 11.12215423583984 0.1646199375391006 11.78744506835938 0.1646199375391006 L 22.70527458190918 0.1646199375391006 C 22.74863815307617 0.1646199375391006 22.80090141296387 0.1646207869052887 22.85648536682129 0.1557730138301849 C 22.87236976623535 0.1587037891149521 22.88605117797852 0.1605198979377747 22.89651489257813 0.1619099378585815 L 22.90358543395996 0.1628872752189636 C 22.91195678710938 0.1650820672512054 22.91952896118164 0.1672862619161606 22.92711448669434 0.1694499403238297 C 22.94343376159668 0.174109935760498 22.95978546142578 0.1787299364805222 22.97844505310059 0.1833899319171906 L 23.02025413513184 0.1938499361276627 L 23.03294563293457 0.1938499361276627 C 23.03365898132324 0.194157138466835 23.03437042236328 0.1944642961025238 23.03508377075195 0.1947699338197708 C 23.04759407043457 0.2001385241746902 23.0601634979248 0.205355778336525 23.07215690612793 0.2100229263305664 C 23.10740661621094 0.22650246322155 23.13674926757813 0.2370831519365311 23.15909576416016 0.2446702122688293 C 23.17087173461914 0.2505552172660828 23.18826293945313 0.2592422962188721 23.20974922180176 0.2679041922092438 C 23.21784210205078 0.2717247307300568 23.22555160522461 0.27523472905159 23.23297500610352 0.2785899341106415 L 23.23714256286621 0.2804928719997406 L 23.26629447937012 0.2999299466609955 L 23.28830528259277 0.3072621524333954 C 23.28986740112305 0.3083143830299377 23.29143333435059 0.3093722760677338 23.29300498962402 0.3104199469089508 L 23.32596397399902 0.3323899507522583 L 23.3537483215332 0.3509092032909393 L 23.3618049621582 0.3575399518013 C 23.37710380554199 0.3702899515628815 23.3980541229248 0.3877599239349365 23.42453384399414 0.4054199457168579 C 23.42968368530273 0.4088426828384399 23.43483543395996 0.4121586978435516 23.43966102600098 0.4154984354972839 L 23.45428466796875 0.4301099479198456 L 23.48307418823242 0.4493099451065063 C 23.49805450439453 0.459289938211441 23.52271461486816 0.4839499294757843 23.54656410217285 0.5077999234199524 C 23.5718936920166 0.5331196188926697 23.60055160522461 0.5679258108139038 23.61589241027832 0.5869390368461609 C 23.62560844421387 0.6005648374557495 23.63524627685547 0.6129311919212341 23.64504432678223 0.6251799464225769 L 23.65102386474609 0.6327399611473083 L 23.67023468017578 0.6615399122238159 L 23.69016265869141 0.680735170841217 C 23.69381713867188 0.6857016086578369 23.69693756103516 0.6907569766044617 23.70022392272949 0.69569993019104 L 23.72213554382324 0.7285599112510681 L 23.73926162719727 0.7542545795440674 L 23.74052429199219 0.7567499279975891 C 23.74661827087402 0.768953263759613 23.75596237182617 0.787639319896698 23.76913452148438 0.8092398047447205 C 23.77407646179199 0.8207525014877319 23.78077697753906 0.8362113237380981 23.78992652893066 0.8539450168609619 C 23.80078125 0.8809278607368469 23.81203842163086 0.903448760509491 23.82449531555176 0.9283599257469177 C 23.82779502868652 0.9349599480628967 23.82896423339844 0.9382199645042419 23.83475494384766 0.9555999636650085 L 23.84955406188965 0.999989926815033 L 23.85351371765137 1.005940794944763 C 23.85946273803711 1.040755867958069 23.86788940429688 1.068999886512756 23.8746280670166 1.089721441268921 C 23.87812042236328 1.102994561195374 23.8816032409668 1.115285515785217 23.8851146697998 1.127569913864136 C 23.88774490356445 1.136759996414185 23.89041519165039 1.145939946174622 23.89304542541504 1.156449913978577 L 23.89323043823242 1.157195210456848 L 23.89329528808594 1.157659888267517 C 23.89475440979004 1.168642163276672 23.89665794372559 1.182974934577942 23.89970016479492 1.199725031852722 C 23.90115356445313 1.214050054550171 23.90299415588379 1.226260423660278 23.90451431274414 1.235633254051208 L 23.90451431274414 1.24261999130249 L 23.90804481506348 1.267279982566833 C 23.91065406799316 1.285559892654419 23.91065406799316 1.303319931030273 23.90804481506348 1.321589946746826 L 23.90451431274414 1.346249938011169 L 23.90451431274414 1.371169924736023 L 23.90451431274414 12.28168964385986 C 23.90451431274414 12.94697952270508 23.36325454711914 13.48824024200439 22.69796562194824 13.48824024200439 C 22.03266525268555 13.48824024200439 21.49140548706055 12.94697952270508 21.49140548706055 12.28168964385986 L 21.49140548706055 5.134679794311523 L 21.49140548706055 4.288549900054932 L 20.89367485046387 4.887429714202881 L 9.522774696350098 16.28026008605957 L 5.072574615478516 20.73045921325684 L 4.475094795227051 21.32794952392578 L 5.320064544677734 21.32794952392578 L 12.48168468475342 21.32794952392578 C 13.14698505401611 21.32794952392578 13.68824481964111 21.86920928955078 13.68824481964111 22.53450012207031 C 13.68824481964111 23.19980049133301 13.14698505401611 23.74106025695801 12.48168468475342 23.74106025695801 Z"/><path class="c" d="M 22.84454345703125 0.5098381042480469 C 22.79056930541992 0.5146198272705078 22.74310684204102 0.5146198272705078 22.70527458190918 0.5146198272705078 L 11.78744506835938 0.5146198272705078 C 11.31514453887939 0.5146198272705078 10.93089485168457 0.8988704681396484 10.93089485168457 1.371170043945313 C 10.93089485168457 1.843479156494141 11.31514453887939 2.227729797363281 11.78744506835938 2.227729797363281 L 18.93445587158203 2.227729797363281 L 20.62358474731445 2.227729797363281 L 19.42959403991699 3.422529220581055 L 8.774684906005859 14.08475017547607 L 3.615394592285156 19.24403953552246 L 2.420425415039063 20.43902015686035 L 2.420425415039063 18.74906921386719 L 2.420425415039063 11.60206031799316 C 2.420425415039063 11.12975978851318 2.036174774169922 10.74551010131836 1.563863754272461 10.74551010131836 C 1.0875244140625 10.74551010131836 0.6999950408935547 11.12975978851318 0.6999950408935547 11.60206031799316 L 0.6999950408935547 22.51258087158203 C 0.6999950408935547 22.53339004516602 0.6999950408935547 22.56189918518066 0.7002639770507813 22.56700897216797 L 0.7073040008544922 22.61627006530762 L 0.7073040008544922 22.6226692199707 C 0.7078475952148438 22.62677383422852 0.7083740234375 22.63095855712891 0.7088813781738281 22.6352367401123 C 0.7101364135742188 22.64274787902832 0.7112331390380859 22.64982604980469 0.7122097015380859 22.65644264221191 C 0.7125720977783203 22.65768814086914 0.7129306793212891 22.65892791748047 0.7132854461669922 22.66016960144043 C 0.7165470123291016 22.67160224914551 0.7197818756103516 22.68304824829102 0.7230205535888672 22.69502830505371 C 0.7293930053710938 22.71512985229492 0.7370109558105469 22.74112510681152 0.7440376281738281 22.7722110748291 L 0.7592048645019531 22.81773948669434 C 0.7638492584228516 22.8316822052002 0.7696933746337891 22.84923553466797 0.776123046875 22.87032508850098 C 0.7846469879150391 22.88690185546875 0.7917308807373047 22.90197563171387 0.7975902557373047 22.91500282287598 C 0.8055667877197266 22.92898178100586 0.8123321533203125 22.94167137145996 0.8179569244384766 22.95256233215332 L 0.8363323211669922 22.98012161254883 L 0.8583049774169922 23.00209045410156 L 0.8872604370117188 23.04555130004883 C 0.8947525024414063 23.05495452880859 0.9048824310302734 23.06785583496094 0.9164485931396484 23.08368682861328 C 0.9402809143066406 23.11283874511719 0.9520664215087891 23.12509155273438 0.9553546905517578 23.12838935852051 C 0.9634304046630859 23.1364574432373 0.9712963104248047 23.14472770690918 0.9796009063720703 23.15255928039551 L 1.023164749145508 23.18160057067871 L 1.038455963134766 23.1968822479248 C 1.068996429443359 23.2181224822998 1.093204498291016 23.23775672912598 1.109979629516602 23.25166702270508 L 1.121496200561523 23.25934219360352 L 1.143314361572266 23.26662063598633 L 1.187828063964844 23.29627227783203 C 1.204038619995117 23.30309867858887 1.218360900878906 23.3096923828125 1.230520248413086 23.31552124023438 C 1.253385543823242 23.3237133026123 1.281656265258789 23.3345890045166 1.313909530639648 23.34903717041016 L 1.360994338989258 23.36080932617188 C 1.383159637451172 23.36635780334473 1.40266227722168 23.37180328369141 1.422061920166016 23.3773365020752 C 1.432470321655273 23.37882423400879 1.444765090942383 23.38072395324707 1.458595275878906 23.38323402404785 L 1.462835311889648 23.38318061828613 L 1.512094497680664 23.39022064208984 C 1.521844863891602 23.39105987548828 1.55035400390625 23.39105987548828 1.571174621582031 23.39105987548828 L 12.48168468475342 23.39105987548828 C 12.95399475097656 23.39105987548828 13.33824443817139 23.00680923461914 13.33824443817139 22.53450012207031 C 13.33824443817139 22.06220054626465 12.95399475097656 21.67794990539551 12.48168468475342 21.67794990539551 L 5.320064544677734 21.67794990539551 L 3.630115509033203 21.67794990539551 L 4.825094223022461 20.48298072814941 L 9.275054931640625 16.03301048278809 L 20.64595413208008 4.640180587768555 L 21.84140396118164 3.44243049621582 L 21.84140396118164 5.134679794311523 L 21.84140396118164 12.28168964385986 C 21.84140396118164 12.75399017333984 22.22565460205078 13.13823986053467 22.69795417785645 13.13823986053467 C 23.17026519775391 13.13823986053467 23.55451393127441 12.75399017333984 23.55451393127441 12.28168964385986 L 23.55451393127441 1.371170043945313 L 23.55451393127441 1.321399688720703 L 23.55836868286133 1.294431686401367 L 23.55451393127441 1.26746940612793 L 23.55451393127441 1.261001586914063 C 23.55397605895996 1.256927490234375 23.55345344543457 1.252775192260742 23.55295181274414 1.248533248901367 C 23.55169868469238 1.241031646728516 23.55060195922852 1.233955383300781 23.54962539672852 1.227346420288086 C 23.54927825927734 1.226150512695313 23.54893493652344 1.224960327148438 23.5485954284668 1.223770141601563 C 23.5452995300293 1.212247848510742 23.54204559326172 1.200723648071289 23.53878593444824 1.188655853271484 C 23.53240203857422 1.168508529663086 23.52477073669434 1.142457962036133 23.51773643493652 1.111322402954102 L 23.50381660461426 1.069585800170898 C 23.49372673034668 1.049221038818359 23.48268699645996 1.026281356811523 23.47141456604004 0.9995479583740234 C 23.46590995788574 0.9883708953857422 23.46110725402832 0.9780368804931641 23.45692825317383 0.9687480926513672 C 23.44895172119141 0.9547672271728516 23.44218635559082 0.9420795440673828 23.43656158447266 0.9311885833740234 L 23.41818809509277 0.9036293029785156 L 23.39629554748535 0.8817405700683594 L 23.3673152923584 0.8382740020751953 C 23.35982322692871 0.8288631439208984 23.34967041015625 0.8159294128417969 23.33806228637695 0.8000450134277344 C 23.31424522399902 0.7709274291992188 23.30249404907227 0.7587070465087891 23.29915428161621 0.7553596496582031 C 23.29106140136719 0.7472743988037109 23.28316688537598 0.7389812469482422 23.27483749389648 0.7311267852783203 L 23.23132514953613 0.7021198272705078 L 23.21606636047363 0.6868705749511719 C 23.18559074401855 0.6656761169433594 23.16141128540039 0.6460647583007813 23.14463996887207 0.6321563720703125 L 23.13313484191895 0.6244869232177734 L 23.11122512817383 0.6171894073486328 L 23.06659698486328 0.5874385833740234 C 23.05040550231934 0.5806198120117188 23.03610038757324 0.5740337371826172 23.02395057678223 0.5682086944580078 C 23.0010814666748 0.5600147247314453 22.97283554077148 0.5491466522216797 22.94061851501465 0.5347137451171875 L 22.89352416992188 0.5229396820068359 C 22.87594604492188 0.5185432434082031 22.86004638671875 0.5142059326171875 22.84454345703125 0.5098381042480469 M 22.83680534362793 -0.2000007629394531 C 22.85873413085938 -0.2000007629394531 22.88065528869629 -0.1926898956298828 22.90257453918457 -0.1926898956298828 C 22.92450523376465 -0.1853809356689453 22.9537353515625 -0.1853809356689453 22.98296546936035 -0.1780796051025391 C 23.0121955871582 -0.1707706451416016 23.03412437438965 -0.1634597778320313 23.0633544921875 -0.1561508178710938 C 23.09258460998535 -0.1561508178710938 23.11450386047363 -0.1488399505615234 23.13642501831055 -0.14154052734375 C 23.15835380554199 -0.1342296600341797 23.18758392333984 -0.1196098327636719 23.20950508117676 -0.1123104095458984 C 23.23873519897461 -0.09769058227539063 23.26066398620605 -0.09037971496582031 23.28258514404297 -0.08308029174804688 C 23.30450439453125 -0.07576942443847656 23.32643508911133 -0.06114959716796875 23.34835433959961 -0.05384063720703125 C 23.37758445739746 -0.0392303466796875 23.39950561523438 -0.03191947937011719 23.42143440246582 -0.01729965209960938 C 23.44335556030273 -0.01000022888183594 23.46527481079102 0.004619598388671875 23.48720550537109 0.01923942565917969 C 23.50912475585938 0.03384971618652344 23.53105545043945 0.04846954345703125 23.55297470092773 0.063079833984375 C 23.57489395141602 0.07769966125488281 23.59682464599609 0.09962081909179688 23.61874389648438 0.1142406463623047 C 23.64066505432129 0.1288490295410156 23.66258430480957 0.1434707641601563 23.67720413208008 0.1580791473388672 C 23.72104454040527 0.1873092651367188 23.7575855255127 0.2238502502441406 23.79412460327148 0.2603893280029297 C 23.83066558837891 0.2969303131103516 23.8672046661377 0.3407802581787109 23.89643478393555 0.3773097991943359 C 23.91105461120605 0.3992404937744141 23.9256649017334 0.4138507843017578 23.94028472900391 0.4357795715332031 C 23.96220397949219 0.4577007293701172 23.9768238067627 0.4796295166015625 23.99143409729004 0.5015506744384766 C 24.00605392456055 0.5234699249267578 24.02067375183105 0.5453891754150391 24.0352840423584 0.5673198699951172 C 24.04990386962891 0.5892391204833984 24.05721473693848 0.6111602783203125 24.07182502746582 0.6330890655517578 C 24.08644485473633 0.6550102233886719 24.0937442779541 0.6842403411865234 24.10836410522461 0.7061595916748047 C 24.11567497253418 0.7280902862548828 24.12297439575195 0.7427005767822266 24.13759422302246 0.7719402313232422 C 24.1522045135498 0.8011703491210938 24.15951538085938 0.823089599609375 24.16682434082031 0.8450107574462891 C 24.18143463134766 0.8669395446777344 24.18874549865723 0.8961696624755859 24.19605445861816 0.9180908203125 C 24.19605445861816 0.9473190307617188 24.20336532592773 0.9692497253417969 24.21067428588867 0.9911708831787109 C 24.21797561645508 1.02039909362793 24.22528457641602 1.042320251464844 24.23259544372559 1.071550369262695 C 24.23990440368652 1.093479156494141 24.23990440368652 1.122709274291992 24.24721527099609 1.151939392089844 C 24.24721527099609 1.173860549926758 24.25451469421387 1.195789337158203 24.25451469421387 1.217710494995117 C 24.26182556152344 1.268869400024414 24.26182556152344 1.32002067565918 24.25451469421387 1.371170043945313 L 24.25451469421387 12.28168964385986 C 24.25451469421387 13.13669967651367 23.56027412414551 13.8382396697998 22.69795417785645 13.8382396697998 C 21.84295463562012 13.8382396697998 21.14140510559082 13.14400959014893 21.14140510559082 12.28168964385986 L 21.14140510559082 5.134679794311523 L 9.770504951477051 16.52750968933105 L 5.320064544677734 20.97794914245605 L 12.48168468475342 20.97794914245605 C 13.33669471740723 20.97794914245605 14.03824424743652 21.67218971252441 14.03824424743652 22.53450012207031 C 14.03824424743652 23.3895092010498 13.34400463104248 24.09106063842773 12.48168468475342 24.09106063842773 L 1.571174621582031 24.09106063842773 C 1.520013809204102 24.09106063842773 1.468864440917969 24.09106063842773 1.417705535888672 24.08374977111816 C 1.395784378051758 24.08374977111816 1.373865127563477 24.07644081115723 1.351934432983398 24.07644081115723 C 1.330015182495117 24.06912994384766 1.300785064697266 24.06912994384766 1.271554946899414 24.06181907653809 C 1.242324829101563 24.05451965332031 1.220394134521484 24.04721069335938 1.191164016723633 24.0398998260498 C 1.161933898925781 24.0398998260498 1.1400146484375 24.03259086608887 1.118083953857422 24.02528953552246 C 1.096164703369141 24.01798057556152 1.066934585571289 24.00336074829102 1.045015335083008 23.99605941772461 C 1.015785217285156 23.9814395904541 0.9938545227050781 23.97413063049316 0.9719352722167969 23.96681976318359 C 0.9500141143798828 23.95952033996582 0.9280853271484375 23.94490051269531 0.9061641693115234 23.93758964538574 C 0.8769340515136719 23.9229793548584 0.8550148010253906 23.91567039489746 0.8330841064453125 23.90106010437012 C 0.8111648559570313 23.89374923706055 0.7892341613769531 23.87912940979004 0.7673149108886719 23.8645191192627 C 0.7453937530517578 23.84989929199219 0.7234745025634766 23.83528900146484 0.7015438079833984 23.82066917419434 C 0.6796245574951172 23.80604934692383 0.6576938629150391 23.78413009643555 0.6357746124267578 23.7695198059082 C 0.6138553619384766 23.7548999786377 0.5919342041015625 23.74028015136719 0.5773143768310547 23.72566986083984 C 0.5334644317626953 23.69643974304199 0.4969253540039063 23.6599006652832 0.4603843688964844 23.62335968017578 C 0.4238548278808594 23.58682060241699 0.3873138427734375 23.54297065734863 0.3580856323242188 23.50642967224121 C 0.3434638977050781 23.48451042175293 0.3288440704345703 23.46990013122559 0.3142337799072266 23.44796943664551 C 0.2923145294189453 23.42605018615723 0.2776947021484375 23.40411949157715 0.2630844116210938 23.38220024108887 C 0.2484645843505859 23.36027908325195 0.2338447570800781 23.33835983276367 0.2192344665527344 23.31642913818359 C 0.2046146392822266 23.29450988769531 0.1973037719726563 23.27259063720703 0.1826953887939453 23.25065994262695 C 0.1680755615234375 23.22874069213867 0.1607742309570313 23.19951057434082 0.1461544036865234 23.17758941650391 C 0.1388454437255859 23.15566062927246 0.1242351531982422 23.14105033874512 0.1169242858886719 23.11182022094727 C 0.1096153259277344 23.08259010314941 0.1023044586181641 23.06065940856934 0.09500503540039063 23.03874015808105 C 0.08038520812988281 23.01681900024414 0.0730743408203125 22.98757934570313 0.065765380859375 22.96566009521484 C 0.065765380859375 22.93642997741699 0.05846405029296875 22.91451072692871 0.05115509033203125 22.89258003234863 C 0.04384422302246094 22.86334991455078 0.03653526306152344 22.8414306640625 0.02923393249511719 22.81220054626465 C 0.02192497253417969 22.79026985168457 0.02192497253417969 22.76103973388672 0.01461410522460938 22.73180961608887 C 0.01461410522460938 22.70989036560059 0.007305145263671875 22.68795967102051 0.007305145263671875 22.66604042053223 C -5.7220458984375e-06 22.61488914489746 -5.7220458984375e-06 22.56373023986816 -5.7220458984375e-06 22.51258087158203 L -5.7220458984375e-06 11.60206031799316 C -5.7220458984375e-06 10.74705028533936 0.7015438079833984 10.04551029205322 1.563863754272461 10.04551029205322 C 2.418874740600586 10.04551029205322 3.120424270629883 10.73974990844727 3.120424270629883 11.60206031799316 L 3.120424270629883 18.74906921386719 L 8.279714584350586 13.5897798538208 L 18.93445587158203 2.927730560302734 L 11.78744506835938 2.927730560302734 C 10.93243503570557 2.927730560302734 10.23089504241943 2.226179122924805 10.23089504241943 1.371170043945313 C 10.23089504241943 0.5161590576171875 10.93243503570557 -0.1853809356689453 11.78744506835938 -0.1853809356689453 L 22.70527458190918 -0.1853809356689453 C 22.75642395019531 -0.1853809356689453 22.80757522583008 -0.1853809356689453 22.83680534362793 -0.2000007629394531 Z"/></g></svg>