<svg xmlns="http://www.w3.org/2000/svg" width="18.077" height="20.659" viewBox="0 0 18.077 20.659"><defs><style>.a{fill:#007aff;}</style></defs><path class="a" d="M12.912,18.077v1.614a.968.968,0,0,1-.968.968H.968A.968.968,0,0,1,0,19.691V4.842a.968.968,0,0,1,.968-.968H3.874V15.817a2.262,2.262,0,0,0,2.26,2.26Zm0-13.88V0H6.133a.968.968,0,0,0-.968.968V15.817a.968.968,0,0,0,.968.968H17.108a.968.968,0,0,0,.968-.968V5.165h-4.2A.971.971,0,0,1,12.912,4.2Zm4.881-1.252L15.132.284A.968.968,0,0,0,14.448,0H14.2V3.874h3.874V3.629a.968.968,0,0,0-.284-.685Z" transform="translate(0)"/></svg>