<svg xmlns="http://www.w3.org/2000/svg" width="35" height="35" viewBox="0 0 35 35"><defs><style>.a{fill:#f5f5f5;}.b{fill:#2e3f50;}</style></defs><g transform="translate(-0.332 -2.81)"><rect class="a" width="35" height="35" rx="17.5" transform="translate(0.332 2.81)"/><path class="b" d="M16.343,10.805h-4.23v4.23h4.23ZM15.5,1.5V3.192H8.73V1.5H7.038V3.192H6.192A1.684,1.684,0,0,0,4.508,4.884L4.5,16.727a1.691,1.691,0,0,0,1.692,1.692H18.035a1.7,1.7,0,0,0,1.692-1.692V4.884a1.7,1.7,0,0,0-1.692-1.692h-.846V1.5Zm2.538,15.227H6.192V7.422H18.035Z" transform="translate(5.832 10.31)"/></g></svg>