<svg xmlns="http://www.w3.org/2000/svg" width="35" height="35" viewBox="0 0 35 35"><defs><style>.a{fill:#f5f5f5;}.b{fill:#2e3f50;}</style></defs><g transform="translate(-0.332 -2.81)"><rect class="a" width="35" height="35" rx="17.5" transform="translate(0.332 2.81)"/><path class="b" d="M9.177,4.5H1.3A1.3,1.3,0,0,0,0,5.8v7.872a1.3,1.3,0,0,0,1.3,1.3H9.177a1.3,1.3,0,0,0,1.3-1.3V5.8A1.3,1.3,0,0,0,9.177,4.5Zm5.17,1.029L11.355,7.593v4.3l2.992,2.061a.875.875,0,0,0,1.376-.7V6.233A.876.876,0,0,0,14.346,5.529Z" transform="translate(9.906 10.692)"/></g></svg>