<svg xmlns="http://www.w3.org/2000/svg" width="35" height="35" viewBox="0 0 35 35"><defs><style>.a{fill:#f5f5f5;}.b{fill:#2e3f50;}</style></defs><g transform="translate(-0.372 -2.81)"><g transform="translate(0.372)"><rect class="a" width="35" height="35" rx="17.5" transform="translate(0 2.81)"/></g><path class="b" d="M15.093,7V9.261a.322.322,0,0,1-.319.321h-.491V6.675h.491A.308.308,0,0,1,15,6.769.313.313,0,0,1,15.093,7Zm-.32,2.921a.321.321,0,0,1,.319.319v2.273a.317.317,0,0,1-.319.319h-.491V9.916h.491Zm0-6.485a.369.369,0,0,1,.242.095.292.292,0,0,1,.111.227V6.018a.287.287,0,0,1-.111.23.39.39,0,0,1-.242.085h-.812v6.986a.263.263,0,0,1-.1.209.385.385,0,0,1-.229.076H9.407V12.176h3.282v-.681H9.407v-.8h3.282v-.644H9.407V9.226h3.282V8.593H9.407v-.8h3.282V7.156H9.407V6.333h3.282V5.69H9.407v-.8h3.282V4.215H9.407v-1.6h4.341a.369.369,0,0,1,.107.085.365.365,0,0,1,.107.217v.511h.812ZM8.6,1V15.285L0,13.8V2.519L8.6,1h0Z" transform="translate(10.322 11.711)"/></g></svg>