<?xml version="1.0" encoding="utf-8"?>
<!-- Generator: Adobe Illustrator 25.2.0, SVG Export Plug-In . SVG Version: 6.00 Build 0)  -->
<svg version="1.1" id="Layer_1" xmlns="http://www.w3.org/2000/svg" xmlns:xlink="http://www.w3.org/1999/xlink" x="0px" y="0px"
	 width="25.869" height="25.869" viewBox="0 0 16 16" style="enable-background:new 0 0 16 16;" xml:space="preserve">
<style type="text/css">
	.st0{fill-rule:evenodd;clip-rule:evenodd;fill:#007AFF;}
</style>
<path class="st0" d="M11.62,9.07L11.4,9.29c-0.22,0.22-0.33,0.5-0.34,0.79l0,0L11,9.78c-0.11-0.53-0.63-0.86-1.15-0.71L9.81,9.08
	L9.78,9.09C9.77,9.1,9.74,9.11,9.71,9.12c-0.05,0.02-0.1,0.04-0.15,0.06C9.55,9.18,9.55,9.18,9.54,9.19
	C9.45,9.23,9.38,9.25,9.33,9.28C8.55,9.7,8,10.44,7.82,11.29H0.47C0.21,11.29,0,11.08,0,10.82V10.8l4.51-3.87l2.04,1.45
	c0.16,0.12,0.38,0.12,0.54,0l2.04-1.45L11.62,9.07L11.62,9.07z M13.65,7.83c-0.34-0.13-0.73-0.06-1,0.22L12.29,8.4L9.93,6.38
	l3.72-2.64V7.83L13.65,7.83z M0,9.57V3.73l3.72,2.64L0,9.57z M13.65,2.35v0.23L6.82,7.42L0,2.58V2.35c0-0.26,0.21-0.47,0.47-0.47
	h12.71C13.44,1.88,13.65,2.09,13.65,2.35z M13.76,9.65c1.23,0,2.24,1,2.24,2.24c0,1.23-1,2.24-2.24,2.24h-3.06
	c-1.24,0-2.24-1-2.24-2.24c0-0.85,0.48-1.6,1.19-1.98c0.09-0.05,0.37-0.15,0.37-0.15c0.13-0.03,0.25,0.04,0.28,0.17l0.09,0.46
	c0.03,0.13-0.05,0.26-0.18,0.3c0,0-0.17,0.08-0.22,0.11c-0.36,0.23-0.59,0.64-0.59,1.09c0,0.72,0.58,1.29,1.29,1.29h3.06
	c0.71,0,1.29-0.58,1.29-1.29c0-0.71-0.58-1.29-1.3-1.29h-0.39l0.44,0.44c0.09,0.09,0.09,0.24,0,0.33l-0.33,0.33
	c-0.09,0.09-0.24,0.09-0.33,0l-1.24-1.24c-0.18-0.18-0.18-0.48,0-0.67l1.24-1.24c0.09-0.09,0.24-0.09,0.33,0l0.33,0.33
	c0.09,0.09,0.09,0.24,0,0.33l-0.44,0.44H13.76z"/>
</svg>
