<svg xmlns="http://www.w3.org/2000/svg" width="22.644" height="14.557" viewBox="0 0 22.644 14.557"><defs><style>.a{fill:#007aff;}</style></defs><path class="a" d="M21.027,9.85a12.426,12.426,0,0,0-4.814-4.461,5.523,5.523,0,0,1,.771,2.843,5.45,5.45,0,0,1-1.662,4,5.455,5.455,0,0,1-4,1.662,5.45,5.45,0,0,1-4-1.661,5.453,5.453,0,0,1-1.662-4,5.523,5.523,0,0,1,.771-2.843A12.42,12.42,0,0,0,1.617,9.85a13.045,13.045,0,0,0,4.214,4.126,10.585,10.585,0,0,0,10.981,0A13.045,13.045,0,0,0,21.027,9.85ZM11.928,5a.6.6,0,0,0-.606-.606,3.7,3.7,0,0,0-2.71,1.131,3.7,3.7,0,0,0-1.131,2.71.606.606,0,1,0,1.213,0A2.631,2.631,0,0,1,11.321,5.6.6.6,0,0,0,11.928,5ZM22.644,9.85a1.748,1.748,0,0,1-.253.872,13.4,13.4,0,0,1-4.758,4.656A12.239,12.239,0,0,1,5.01,15.372a13.481,13.481,0,0,1-4.757-4.65,1.629,1.629,0,0,1,0-1.744,13.5,13.5,0,0,1,4.758-4.65,12.218,12.218,0,0,1,12.623,0,13.479,13.479,0,0,1,4.757,4.651A1.748,1.748,0,0,1,22.644,9.85Z" transform="translate(0 -2.571)"/></svg>