<?xml version="1.0" encoding="utf-8"?>
<!-- Generator: Adobe Illustrator 16.0.0, SVG Export Plug-In . SVG Version: 6.00 Build 0)  -->
<!DOCTYPE svg PUBLIC "-//W3C//DTD SVG 1.1//EN" "http://www.w3.org/Graphics/SVG/1.1/DTD/svg11.dtd">
<svg version="1.1" id="Layer_1" xmlns="http://www.w3.org/2000/svg" xmlns:xlink="http://www.w3.org/1999/xlink" x="0px" y="0px"
	 width="25px" height="25px" viewBox="0 0 25 25" enable-background="new 0 0 25 25" xml:space="preserve">
<g>
	<path fill-rule="evenodd" clip-rule="evenodd" fill="#888888" d="M23.998,3.475c0-0.362,0.043-0.323-0.313-0.323
		c-1.101-0.002-2.202-0.007-3.304,0.004c-0.216,0.002-0.277-0.064-0.263-0.271c0.017-0.254,0.006-0.511,0.003-0.766
		c-0.01-0.637-0.468-1.111-1.069-1.111c-0.615,0-1.078,0.479-1.085,1.126c-0.004,0.271-0.009,0.542,0.002,0.813
		c0.006,0.154-0.038,0.209-0.199,0.207c-0.591-0.008-1.182-0.009-1.771,0c-0.178,0.003-0.211-0.067-0.21-0.225
		c0.002-0.327,0.023-0.654-0.021-0.98c-0.077-0.576-0.544-0.966-1.132-0.942C14.097,1.03,13.657,1.48,13.64,2.04
		c-0.009,0.303-0.01,0.607,0,0.91c0.006,0.161-0.056,0.205-0.209,0.204c-0.599-0.007-1.197-0.006-1.795,0
		c-0.143,0.001-0.198-0.038-0.193-0.188c0.009-0.295,0.01-0.591,0-0.886c-0.021-0.624-0.5-1.081-1.113-1.073
		C9.755,1.015,9.299,1.493,9.29,2.1C9.285,2.387,9.282,2.675,9.291,2.962c0.005,0.149-0.053,0.192-0.195,0.191
		C8.489,3.147,7.882,3.146,7.276,3.154C7.124,3.155,7.087,3.099,7.091,2.958C7.1,2.671,7.096,2.384,7.093,2.097
		C7.085,1.481,6.62,1.008,6.026,1.007c-0.609,0-1.078,0.472-1.086,1.099C4.936,2.377,4.926,2.649,4.943,2.919
		C4.956,3.118,4.88,3.155,4.699,3.154c-1.133-0.007-2.266,0.004-3.399-0.01C1.054,3.141,1,3.208,1,3.447
		c0.007,6.751,0.007,13.503,0,20.254c0,0.225,0.046,0.293,0.284,0.292c3.734-0.008,7.469-0.006,11.204-0.006s7.469,0,11.204,0
		c0.344,0,0.306,0.04,0.307-0.307C23.999,16.945,23.999,10.21,23.998,3.475z M3.156,5.543c-0.002-0.182,0.051-0.23,0.229-0.225
		c0.447,0.012,0.894,0.011,1.341,0c0.167-0.004,0.227,0.043,0.214,0.213C4.911,5.907,5.002,6.248,5.291,6.508
		c0.331,0.299,0.715,0.383,1.13,0.209c0.411-0.172,0.64-0.493,0.669-0.939c0.03-0.455,0.023-0.456,0.472-0.456
		c0.487,0,0.974,0.014,1.46-0.006c0.231-0.009,0.289,0.071,0.269,0.282C9.263,5.896,9.336,6.169,9.532,6.402
		c0.301,0.357,0.737,0.486,1.163,0.345c0.431-0.143,0.727-0.544,0.748-1.013c0.018-0.411,0.018-0.411,0.443-0.411
		c0.503,0,1.006,0.007,1.508-0.004c0.179-0.004,0.236,0.046,0.229,0.227c-0.015,0.437,0.104,0.824,0.495,1.076
		c0.343,0.221,0.704,0.25,1.067,0.062c0.358-0.187,0.562-0.486,0.585-0.896c0.027-0.464,0.026-0.464,0.495-0.464
		c0.447,0,0.894,0,1.341,0c0.355,0,0.355,0,0.36,0.349c0.007,0.538,0.309,0.947,0.803,1.088c0.647,0.185,1.32-0.302,1.35-0.978
		c0.02-0.459,0.02-0.459,0.492-0.459c0.351,0,0.702,0.005,1.053-0.002c0.133-0.003,0.181,0.035,0.18,0.174
		c-0.005,0.925-0.007,1.851,0.001,2.777c0.002,0.198-0.114,0.168-0.232,0.168c-2.274,0-4.549,0-6.823,0c-0.766,0-1.532,0-2.298,0
		c-3.017,0-6.033-0.003-9.05,0.006C3.204,8.446,3.151,8.38,3.155,8.153C3.168,7.284,3.166,6.414,3.156,5.543z M21.847,21.521
		c0.001,0.214-0.048,0.277-0.271,0.277c-6.047-0.007-12.095-0.006-18.142-0.001c-0.214,0.001-0.278-0.048-0.278-0.271
		c0.007-3.781,0.007-7.563,0-11.345c0-0.214,0.048-0.279,0.272-0.279c3.023,0.008,6.047,0.005,9.071,0.005s6.048,0.002,9.071-0.005
		c0.215,0,0.277,0.051,0.277,0.273C21.84,13.957,21.841,17.739,21.847,21.521z"/>
	<path fill-rule="evenodd" clip-rule="evenodd" fill="#888888" d="M7.426,13.313c0,0.359-0.005,0.718,0.002,1.076
		c0.003,0.146-0.023,0.214-0.193,0.212c-0.701-0.009-1.403-0.009-2.104-0.001c-0.162,0.002-0.199-0.054-0.198-0.206
		c0.007-0.71,0.006-1.419,0.001-2.129c-0.001-0.135,0.023-0.199,0.18-0.197c0.71,0.008,1.419,0.007,2.129,0
		c0.153-0.002,0.188,0.051,0.185,0.192C7.42,12.612,7.426,12.963,7.426,13.313z"/>
	<path fill-rule="evenodd" clip-rule="evenodd" fill="#888888" d="M20.543,13.35c0,0.351-0.005,0.701,0.002,1.052
		c0.003,0.135-0.022,0.201-0.18,0.199c-0.709-0.007-1.418-0.007-2.127,0c-0.154,0.002-0.185-0.057-0.184-0.195
		c0.005-0.717,0.007-1.434-0.001-2.15c-0.002-0.152,0.049-0.187,0.191-0.186c0.701,0.006,1.402,0.007,2.104,0
		c0.161-0.002,0.201,0.053,0.197,0.206C20.536,12.633,20.543,12.991,20.543,13.35z"/>
	<path fill-rule="evenodd" clip-rule="evenodd" fill="#888888" d="M7.426,18.353c0,0.366-0.005,0.733,0.002,1.1
		c0.003,0.136-0.041,0.179-0.177,0.178c-0.717-0.005-1.435-0.005-2.152,0c-0.125,0.001-0.166-0.04-0.165-0.165
		c0.005-0.733,0.005-1.467,0-2.2c0-0.124,0.039-0.166,0.165-0.165c0.717,0.005,1.435,0.006,2.152,0
		c0.135-0.001,0.18,0.04,0.177,0.177C7.421,17.635,7.426,17.993,7.426,18.353z"/>
	<path fill-rule="evenodd" clip-rule="evenodd" fill="#888888" d="M20.543,18.383c0,0.351-0.005,0.701,0.002,1.052
		c0.003,0.138-0.027,0.198-0.183,0.196c-0.709-0.007-1.418-0.006-2.127-0.001c-0.13,0.001-0.183-0.031-0.181-0.172
		c0.006-0.733,0.005-1.466,0-2.199c-0.001-0.131,0.051-0.159,0.169-0.158c0.717,0.003,1.435,0.005,2.151-0.001
		c0.144-0.002,0.172,0.058,0.17,0.184C20.539,17.65,20.543,18.017,20.543,18.383z"/>
	<path fill-rule="evenodd" clip-rule="evenodd" fill="#888888" d="M11.79,13.343c0,0.359-0.004,0.718,0.002,1.076
		c0.002,0.132-0.037,0.183-0.175,0.182c-0.709-0.006-1.419-0.005-2.129-0.001c-0.131,0.001-0.185-0.041-0.184-0.178
		c0.004-0.733,0.004-1.467,0-2.201c0-0.114,0.042-0.151,0.154-0.151c0.726,0.003,1.451,0.004,2.176,0
		c0.134-0.001,0.158,0.059,0.156,0.173C11.787,12.609,11.79,12.976,11.79,13.343z"/>
	<path fill-rule="evenodd" clip-rule="evenodd" fill="#888888" d="M13.691,13.321c0-0.359,0.005-0.718-0.002-1.076
		c-0.003-0.137,0.046-0.176,0.179-0.175c0.71,0.005,1.419,0.005,2.128,0c0.132-0.001,0.182,0.036,0.181,0.174
		c-0.005,0.725-0.004,1.451,0,2.175c0.001,0.134-0.047,0.182-0.182,0.181c-0.709-0.005-1.419-0.005-2.128,0
		c-0.137,0.001-0.181-0.044-0.178-0.179C13.696,14.055,13.691,13.688,13.691,13.321z"/>
	<path fill-rule="evenodd" clip-rule="evenodd" fill="#888888" d="M11.79,18.367c0,0.358-0.006,0.717,0.003,1.075
		c0.004,0.148-0.048,0.189-0.192,0.188c-0.701-0.007-1.402-0.006-2.104-0.001c-0.146,0.002-0.195-0.047-0.194-0.192
		c0.005-0.717,0.006-1.434,0-2.15c-0.001-0.15,0.058-0.188,0.198-0.188c0.701,0.005,1.402,0.006,2.104-0.001
		c0.149-0.001,0.19,0.05,0.188,0.192C11.785,17.649,11.79,18.008,11.79,18.367z"/>
	<path fill-rule="evenodd" clip-rule="evenodd" fill="#888888" d="M13.691,18.349c0-0.351,0.005-0.701-0.002-1.052
		c-0.003-0.136,0.025-0.199,0.182-0.198c0.709,0.008,1.418,0.006,2.127,0.001c0.138-0.001,0.179,0.052,0.179,0.182
		c-0.004,0.726-0.004,1.45,0,2.175c0.001,0.14-0.059,0.175-0.188,0.174c-0.709-0.004-1.418-0.005-2.127,0.001
		c-0.142,0.001-0.175-0.055-0.173-0.184C13.695,19.081,13.691,18.715,13.691,18.349z"/>
</g>
</svg>
