<svg xmlns="http://www.w3.org/2000/svg" width="52" height="52" viewBox="0 0 52 52"><defs><style>.a{fill:#fafafa;stroke:#efefef;}.b{fill:#2e3f50;}.c{stroke:none;}.d{fill:none;}</style></defs><g transform="translate(-956)"><g class="a" transform="translate(956)"><rect class="c" width="52" height="52" rx="26"/><rect class="d" x="0.5" y="0.5" width="51" height="51" rx="25.5"/></g><path class="b" d="M9.236,13a4.9,4.9,0,0,1-.1-2.381C9.561,10.623,9.521,12.5,9.236,13ZM9.15,15.4a23.43,23.43,0,0,1-1.442,3.184A18.7,18.7,0,0,1,10.9,17.473,6.578,6.578,0,0,1,9.15,15.4ZM4.372,21.738c0,.041.67-.274,1.772-2.041A7.018,7.018,0,0,0,4.372,21.738ZM12.593,8.124H19.5V24.779A1.216,1.216,0,0,1,18.28,26H1.219A1.216,1.216,0,0,1,0,24.779V1.219A1.216,1.216,0,0,1,1.219,0H11.374V6.906A1.222,1.222,0,0,0,12.593,8.124Zm-.406,8.724a5.1,5.1,0,0,1-2.168-2.732,7.3,7.3,0,0,0,.315-3.26,1.272,1.272,0,0,0-2.427-.345,8.443,8.443,0,0,0,.411,3.91,47.681,47.681,0,0,1-2.072,4.357c-.005,0-.005.005-.01.005-1.376.706-3.737,2.26-2.767,3.453a1.578,1.578,0,0,0,1.092.508c.909,0,1.813-.914,3.1-3.138a28.944,28.944,0,0,1,4.011-1.178,7.7,7.7,0,0,0,3.25.99,1.314,1.314,0,0,0,1-2.2c-.706-.691-2.757-.493-3.737-.366ZM19.143,5.332,14.167.355A1.218,1.218,0,0,0,13.3,0H13V6.5h6.5V6.19A1.215,1.215,0,0,0,19.143,5.332ZM15.38,18.3c.208-.137-.127-.6-2.173-.457C15.091,18.64,15.38,18.3,15.38,18.3Z" transform="translate(972 13)"/></g></svg>