<svg xmlns="http://www.w3.org/2000/svg" width="52" height="52" viewBox="0 0 52 52"><defs><style>.a{fill:#fafafa;stroke:#efefef;}.b{fill:#2e3f50;}.c{stroke:none;}.d{fill:none;}</style></defs><g transform="translate(-1086.576)"><g class="a" transform="translate(1086.576)"><rect class="c" width="52" height="52" rx="26"/><rect class="d" x="0.5" y="0.5" width="51" height="51" rx="25.5"/></g><g transform="translate(1098.24 11.664)"><path class="b" d="M23.611,10.119V4.071a1.687,1.687,0,0,0-.494-1.193L20.732.494A1.687,1.687,0,0,0,19.539,0H5.06A1.687,1.687,0,0,0,3.373,1.687v8.433A3.373,3.373,0,0,0,0,13.492v5.9a.843.843,0,0,0,.843.843h2.53V25.3A1.687,1.687,0,0,0,5.06,26.984H21.925A1.687,1.687,0,0,0,23.611,25.3v-5.06h2.53a.843.843,0,0,0,.843-.843v-5.9A3.373,3.373,0,0,0,23.611,10.119ZM20.238,23.611H6.746v-5.06H20.238Zm0-11.806H6.746V3.373H16.865V5.9a.843.843,0,0,0,.843.843h2.53Zm2.53,3.795a1.265,1.265,0,1,1,1.265-1.265A1.265,1.265,0,0,1,22.768,15.6Z" transform="translate(1.336 1.336)"/></g></g></svg>