<svg xmlns="http://www.w3.org/2000/svg" width="15.479" height="17.69" viewBox="0 0 15.479 17.69"><defs><style>.a{fill:#2e3f50;}</style></defs><path class="a" d="M0,16.031A1.659,1.659,0,0,0,1.658,17.69H13.82a1.659,1.659,0,0,0,1.658-1.658v-9.4H0ZM11.056,9.26a.416.416,0,0,1,.415-.415h1.382a.416.416,0,0,1,.415.415v1.382a.416.416,0,0,1-.415.415H11.471a.416.416,0,0,1-.415-.415Zm0,4.422a.416.416,0,0,1,.415-.415h1.382a.416.416,0,0,1,.415.415v1.382a.416.416,0,0,1-.415.415H11.471a.416.416,0,0,1-.415-.415ZM6.634,9.26a.416.416,0,0,1,.415-.415H8.43a.416.416,0,0,1,.415.415v1.382a.416.416,0,0,1-.415.415H7.048a.416.416,0,0,1-.415-.415Zm0,4.422a.416.416,0,0,1,.415-.415H8.43a.416.416,0,0,1,.415.415v1.382a.416.416,0,0,1-.415.415H7.048a.416.416,0,0,1-.415-.415ZM2.211,9.26a.416.416,0,0,1,.415-.415H4.008a.416.416,0,0,1,.415.415v1.382a.416.416,0,0,1-.415.415H2.626a.416.416,0,0,1-.415-.415Zm0,4.422a.416.416,0,0,1,.415-.415H4.008a.416.416,0,0,1,.415.415v1.382a.416.416,0,0,1-.415.415H2.626a.416.416,0,0,1-.415-.415ZM13.82,2.211H12.162V.553A.554.554,0,0,0,11.609,0H10.5a.554.554,0,0,0-.553.553V2.211H5.528V.553A.554.554,0,0,0,4.975,0H3.87a.554.554,0,0,0-.553.553V2.211H1.658A1.659,1.659,0,0,0,0,3.87V5.528H15.479V3.87A1.659,1.659,0,0,0,13.82,2.211Z"/></svg>