<svg xmlns="http://www.w3.org/2000/svg" width="30" height="30" viewBox="0 0 30 30"><defs><style>.a{fill:#f5f8fa;}.b{opacity:0.2;}</style></defs><g transform="translate(-1647.107 -6)"><circle class="a" cx="15" cy="15" r="15" transform="translate(1647.107 6)"/><g transform="translate(1630.943 13)"><g transform="translate(27.28)"><g transform="translate(0)"><path class="b" d="M115.094,0a4.3,4.3,0,1,0,4.3,4.3A4.314,4.314,0,0,0,115.094,0Z" transform="translate(-110.791)"/></g></g><g transform="translate(24.165 8.913)"><g transform="translate(0)"><path class="b" d="M38.967,250.971a4.011,4.011,0,0,0-.432-.789,5.348,5.348,0,0,0-3.7-2.33.792.792,0,0,0-.545.132,4.586,4.586,0,0,1-5.411,0,.705.705,0,0,0-.545-.132,5.309,5.309,0,0,0-3.7,2.33,4.624,4.624,0,0,0-.432.789.4.4,0,0,0,.019.357,7.5,7.5,0,0,0,.507.752,7.139,7.139,0,0,0,.864.977,11.263,11.263,0,0,0,.864.752,8.568,8.568,0,0,0,10.221,0,8.261,8.261,0,0,0,.864-.752,8.675,8.675,0,0,0,.864-.977,6.587,6.587,0,0,0,.507-.752A.321.321,0,0,0,38.967,250.971Z" transform="translate(-24.165 -247.841)"/></g></g></g></g></svg>