<svg xmlns="http://www.w3.org/2000/svg" width="25.161" height="25.201" viewBox="0 0 25.161 25.201">
  <g id="ic_time" transform="translate(-0.378 0.001)">
    <g id="Group_2271" data-name="Group 2271" transform="translate(3.038 3.58)">
      <g id="Group_2270" data-name="Group 2270">
        <path id="Path_3107" data-name="Path 3107" d="M67.87,84.644a9.9,9.9,0,1,0-14.3,0L51,88.073a.9.9,0,1,0,1.44,1.08l2.493-3.325a9.828,9.828,0,0,0,11.575,0L69,89.154a.9.9,0,1,0,1.44-1.08Zm-6.248-6.832a.9.9,0,0,1-.18.54l-2.7,3.6a.9.9,0,1,1-1.44-1.08l2.52-3.36v-5.1a.9.9,0,1,1,1.8,0v5.4Z" transform="translate(-50.821 -67.893)"/>
      </g>
    </g>
    <g id="Group_2273" data-name="Group 2273" transform="translate(0.378 0.039)">
      <g id="Group_2272" data-name="Group 2272" transform="translate(0)">
        <path id="Path_3108" data-name="Path 3108" d="M8.02,2.024A4.5,4.5,0,0,0,1.656,8.388a.9.9,0,0,0,1.273,0L8.02,3.3A.9.9,0,0,0,8.02,2.024Z" transform="translate(-0.378 -0.746)"/>
      </g>
    </g>
    <g id="Group_2275" data-name="Group 2275" transform="translate(17.595 -0.001)">
      <g id="Group_2274" data-name="Group 2274" transform="translate(0 0)">
        <path id="Path_3109" data-name="Path 3109" d="M333.455,1.317a4.5,4.5,0,0,0-6.363,0,.9.9,0,0,0,0,1.273l5.091,5.091a.9.9,0,0,0,1.273,0A4.5,4.5,0,0,0,333.455,1.317Z" transform="translate(-326.828 0.001)"/>
      </g>
    </g>
  </g>
</svg>
