<svg xmlns="http://www.w3.org/2000/svg" width="23.261" height="23.261" viewBox="0 0 23.261 23.261"><defs><style>.a{fill:#bdbdbd;}</style></defs><path class="a" d="M12.193,23.823a11.63,11.63,0,1,1,11.63-11.63A11.628,11.628,0,0,1,12.193,23.823Zm1.355-6.734-3.541-3.4h8.563A1.123,1.123,0,0,0,19.7,12.568v-.75a1.123,1.123,0,0,0-1.126-1.126H10.007l3.541-3.4a1.127,1.127,0,0,0,.019-1.609l-.516-.511a1.121,1.121,0,0,0-1.59,0L5.238,11.4a1.121,1.121,0,0,0,0,1.59l6.223,6.223a1.121,1.121,0,0,0,1.59,0l.516-.511A1.127,1.127,0,0,0,13.548,17.089Z" transform="translate(-0.563 -0.563)"/></svg>