<svg xmlns="http://www.w3.org/2000/svg" xmlns:xlink="http://www.w3.org/1999/xlink" width="151" height="143" viewBox="0 0 151 143"><defs><style>.a{fill:#fff;stroke:#ededed;}.b{fill:#4285f4;}.c{fill:#34a853;}.d{fill:#fbbc04;}.e{fill:#ea4335;}.f{fill:#c5221f;}.g{stroke:none;}.h{fill:none;}.i{filter:url(#a);}</style><filter id="a" x="0" y="0" width="151" height="143" filterUnits="userSpaceOnUse"><feOffset dy="3" input="SourceAlpha"/><feGaussianBlur stdDeviation="8" result="b"/><feFlood flood-color="#8d8d8d" flood-opacity="0.071"/><feComposite operator="in" in2="b"/><feComposite in="SourceGraphic"/></filter></defs><g transform="translate(38 34)"><g class="i" transform="matrix(1, 0, 0, 1, -38, -34)"><g class="a" transform="translate(24 21)"><rect class="g" width="103" height="95" rx="10"/><rect class="h" x="0.5" y="0.5" width="102" height="94" rx="9.5"/></g></g><g transform="translate(14 16.522)"><path class="b" d="M3.2,122.842h7.465V104.7L0,96.7v22.94A3.206,3.206,0,0,0,3.2,122.842Z" transform="translate(0 -87.64)"/><path class="c" d="M386.4,122.842h7.465a3.206,3.206,0,0,0,3.2-3.2V96.7l-10.667,8Z" transform="translate(-350.117 -87.64)"/><path class="d" d="M386.4,3.191V17.06l10.667-8V4.787a4.8,4.8,0,0,0-7.681-3.84Z" transform="translate(-350.117)"/><path class="e" d="M113.6,48.069V34.2l12.808,9.606L139.216,34.2V48.069l-12.808,9.606Z" transform="translate(-102.933 -31.009)"/><path class="f" d="M0,4.787V9.06l10.667,8V3.191L7.681.947A4.8,4.8,0,0,0,0,4.787Z" transform="translate(0 0)"/></g></g></svg>