<svg xmlns="http://www.w3.org/2000/svg" xmlns:xlink="http://www.w3.org/1999/xlink" width="151" height="143" viewBox="0 0 151 143"><defs><style>.a,.c{fill:#fff;}.a{stroke:#ededed;}.b{fill:#1a76bc;}.d{stroke:none;}.e{fill:none;}.f{filter:url(#a);}</style><filter id="a" x="0" y="0" width="151" height="143" filterUnits="userSpaceOnUse"><feOffset dy="3" input="SourceAlpha"/><feGaussianBlur stdDeviation="8" result="b"/><feFlood flood-color="#8d8d8d" flood-opacity="0.071"/><feComposite operator="in" in2="b"/><feComposite in="SourceGraphic"/></filter></defs><g transform="translate(38 34)"><g class="f" transform="matrix(1, 0, 0, 1, -38, -34)"><g class="a" transform="translate(24 21)"><rect class="d" width="103" height="95" rx="10"/><rect class="e" x="0.5" y="0.5" width="102" height="94" rx="9.5"/></g></g><g transform="translate(9.287 6.499)"><path class="b" d="M4.6,9.217V46.55l27.865,5.458V4.4Z"/><path class="b" d="M235.6,132.487V145h15.758s2.306-.32,2.114-3.344l.013-16.36-11.543,7.815A4.6,4.6,0,0,1,235.6,132.487Z" transform="translate(-201.405 -105.411)"/><path class="b" d="M235.6,79.889h15.886a1.746,1.746,0,0,1,1.87,1.909L239,91.368,235.6,89.2Z" transform="translate(-201.405 -65.816)"/><path class="c" d="M70.742,121.1c-3.5,0-6.342,3.779-6.342,8.443s2.844,8.443,6.342,8.443,6.342-3.779,6.342-8.443S74.239,121.1,70.742,121.1Zm-.077,13.439c-1.678,0-3.049-2.242-3.049-5.009s1.371-5.009,3.049-5.009,3.049,2.242,3.049,5.009S72.343,134.539,70.665,134.539Z" transform="translate(-52.139 -101.749)"/></g></g></svg>