<svg xmlns="http://www.w3.org/2000/svg" width="26.88" height="26.398" viewBox="0 0 26.88 26.398"><defs><style>.a{fill:#fff;}.b{fill:#007aff;}</style></defs><circle class="a" cx="13.199" cy="13.199" r="13.199" transform="translate(0.482)"/><path class="b" d="M26.471,13.517A12.954,12.954,0,1,1,13.517.562,12.954,12.954,0,0,1,26.471,13.517ZM12.018,20.376l9.611-9.611a.836.836,0,0,0,0-1.182L20.447,8.4a.836.836,0,0,0-1.182,0l-7.838,7.838L7.768,12.579a.836.836,0,0,0-1.182,0L5.4,13.761a.836.836,0,0,0,0,1.182l5.432,5.432a.836.836,0,0,0,1.182,0Z" transform="translate(-0.563 -0.396)"/></svg>