<svg xmlns="http://www.w3.org/2000/svg" width="47" height="47" viewBox="0 0 47 47"><defs><style>.a{fill:#f5f8fa;}.b{fill:#c4c7c8;}</style></defs><g transform="translate(-695 -806)"><rect class="a" width="47" height="47" rx="8" transform="translate(695 806)"/><g transform="translate(708 760.799)"><path class="b" d="M19.235,61.2H1.3a1.3,1.3,0,0,0-1.3,1.3V75.872a1.3,1.3,0,0,0,1.3,1.3H19.235a1.3,1.3,0,0,0,1.3-1.3V62.505A1.3,1.3,0,0,0,19.235,61.2Zm0,1.3v9.484l-2.57-2.337a.978.978,0,0,0-1.349.032l-2.6,2.6L7.586,66.16a.978.978,0,0,0-1.491-.01L1.3,71.717V62.505Zm-5.542,3.423a1.793,1.793,0,1,1,1.793,1.793A1.793,1.793,0,0,1,13.693,65.928Z"/></g></g></svg>